:SAMPLES-PER-SECOND 30
:FULLY-SPECIFIED
:DEGREES
496
root  0.537355 40.2451 -2.19471 -170.249 -84.6102 168.712
RightUpLeg  -17.5176 -8.58417 -6.0048
RightLeg  32.1531 -0.68474 -0.70343
RightFoot  -5.08168 -0.435892 7.32771
RightToes  0.000482159 0.542163 -0.142577
Spine  13.1108 1.28274 4.80276
Spine1  9.00862 4.4542 -9.90148
HEad  15.2842 28.4722 -8.70066
LeftShoulder1  5.73627 -8.40589 -41.7667
LeftArm  -22.1491 28.9131 -24.6536
LeftForeArm  19.2461 -24.5207 -4.23256
LeftHand  -0.25398 0.0180481 5.50724
RightShoulder  5.69547 9.68524 37.1693
RightArm  4.11134 -26.3934 38.7889
RightForeArm  -4.12407 26.4449 5.89475
RightHand  -0.894576 0.532656 -17.5438
LeftUpLeg  0.140261 8.29718 3.56305
LeftLeg  12.8641 6.31259 -0.769914
LeftFoot  -13.4767 -0.0718017 -8.16909
LeftToes  1.06245e-005 4.65856e-005 -8.18503e-006
497
root  0.936726 40.3044 -1.98881 -165.897 -84.7098 164.379
RightUpLeg  -14.8918 -7.15058 -5.49101
RightLeg  33.5598 -1.54431 -1.34723
RightFoot  -5.98156 -0.353467 6.69027
RightToes  0.000482159 0.542163 -0.142577
Spine  12.3465 1.36535 4.11447
Spine1  8.65562 4.33753 -9.62944
HEad  13.2007 24.1461 -7.37215
LeftShoulder1  5.78065 -8.43996 -41.9854
LeftArm  -21.2058 28.7096 -24.2207
LeftForeArm  19.0458 -22.7039 -3.85288
LeftHand  -0.25398 0.0180481 5.50724
RightShoulder  5.68857 9.63417 37.2811
RightArm  3.83367 -26.3872 38.8201
RightForeArm  -6.09808 25.1512 5.67663
RightHand  -0.983545 0.933546 -18.0948
LeftUpLeg  0.0549748 8.06732 3.18546
LeftLeg  11.7206 6.4535 -1.54505
LeftFoot  -12.9572 -0.0425457 -8.50819
LeftToes  1.06245e-005 4.65856e-005 -8.18503e-006
498
root  1.26734 40.3276 -1.82127 -159.681 -84.8262 158.428
RightUpLeg  -11.6975 -6.97805 -4.9772
RightLeg  32.3622 -1.64039 -1.36662
RightFoot  -6.92735 -0.300383 6.59237
RightToes  0.000482159 0.542163 -0.142577
Spine  11.389 1.43435 3.61752
Spine1  8.14251 4.28657 -9.62738
HEad  11.3509 19.6825 -5.89099
LeftShoulder1  5.72697 -8.32829 -41.9863
LeftArm  -20.3178 28.4326 -24.0278
LeftForeArm  18.7153 -21.199 -3.55051
LeftHand  -0.25398 0.0180481 5.50724
RightShoulder  5.67006 9.55608 37.3945
RightArm  3.39766 -25.5454 38.5633
RightForeArm  -4.33376 21.8026 5.31537
RightHand  -0.877633 0.658731 -16.856
LeftUpLeg  -0.368444 7.89855 2.72906
LeftLeg  10.9287 6.36091 -2.21711
LeftFoot  -12.6665 -0.0344292 -9.51125
LeftToes  1.06245e-005 4.65856e-005 -8.18503e-006
499
root  1.55401 40.3701 -1.67802 -150.931 -85.1145 150.111
RightUpLeg  -7.86009 -8.57697 -4.53803
RightLeg  28.0176 -2.40161 -1.62381
RightFoot  -8.95542 -0.181833 5.55766
RightToes  0.000482159 0.542163 -0.142577
Spine  10.4266 1.40724 3.31845
Spine1  7.4689 4.14299 -9.47098
HEad  9.53636 15.2575 -4.54906
LeftShoulder1  5.56283 -8.07046 -41.6655
LeftArm  -18.8502 27.5913 -23.7477
LeftForeArm  18.3733 -18.9736 -3.23094
LeftHand  -0.25398 0.0180481 5.50724
RightShoulder  5.62566 9.44303 37.4296
RightArm  -2.00186 -24.2885 37.7298
RightForeArm  3.79778 16.8331 5.8356
RightHand  -0.811791 0.761762 -15.4171
LeftUpLeg  -0.847762 7.56836 2.06699
LeftLeg  9.83357 6.16638 -2.72372
LeftFoot  -12.1453 0.000444204 -10.2541
LeftToes  1.06245e-005 4.65856e-005 -8.18503e-006
500
root  1.81438 40.4473 -1.55521 -140.02 -85.3848 139.7
RightUpLeg  -4.15598 -11.1207 -4.42854
RightLeg  21.5771 -4.27356 -1.93997
RightFoot  -11.6085 -0.075745 2.49265
RightToes  0.000482159 0.542163 -0.142577
Spine  9.54772 1.39752 3.35776
Spine1  6.79946 4.06168 -9.1935
HEad  7.38338 10.8872 -3.57208
LeftShoulder1  5.34947 -7.79955 -40.9744
LeftArm  -16.8138 25.6208 -23.0344
LeftForeArm  17.9663 -14.9899 -3.06835
LeftHand  -0.25398 0.0180481 5.50724
RightShoulder  5.52474 9.29031 37.1684
RightArm  -9.87749 -23.2228 36.3359
RightForeArm  10.5285 11.974 5.83292
RightHand  -1.09022 2.30773 -16.5017
LeftUpLeg  -1.10776 6.88105 1.2649
LeftLeg  8.12343 6.30978 -3.11935
LeftFoot  -11.1717 0.082324 -10.5045
LeftToes  1.06245e-005 4.65856e-005 -8.18503e-006
501
root  2.06495 40.5296 -1.42981 -133.734 -85.5322 133.978
RightUpLeg  -1.77642 -11.8894 -4.75558
RightLeg  15.6557 -6.82261 -0.932068
RightFoot  -12.8295 -0.0925425 -0.910639
RightToes  0.000482159 0.542163 -0.142577
Spine  8.71293 1.46443 4.34875
Spine1  6.32216 4.23153 -9.35377
HEad  4.79275 7.01555 -2.9977
LeftShoulder1  5.11984 -7.60109 -39.8214
LeftArm  -15.3896 22.945 -21.9939
LeftForeArm  17.3432 -10.0356 -3.23126
LeftHand  -0.25398 0.0180481 5.50724
RightShoulder  5.28384 8.99952 36.2693
RightArm  -14.8484 -22.2593 34.533
RightForeArm  10.0014 8.51177 4.84974
RightHand  -1.61908 4.43623 -19.311
LeftUpLeg  -1.48537 6.01751 0.75827
LeftLeg  6.64053 6.99961 -3.36184
LeftFoot  -10.2282 0.165215 -10.6801
LeftToes  1.06245e-005 4.65856e-005 -8.18503e-006
502
root  2.31339 40.6393 -1.29316 -137.734 -85.6217 138.703
RightUpLeg  -1.00109 -9.83478 -5.19091
RightLeg  11.7114 -9.06465 1.30926
RightFoot  -11.6046 -0.0858733 -1.82598
RightToes  0.000482159 0.542163 -0.142577
Spine  7.86905 1.58675 6.15926
Spine1  5.96371 4.53385 -9.9293
HEad  2.07235 4.35347 -2.83415
LeftShoulder1  4.83388 -7.39788 -38.138
LeftArm  -14.7511 20.9559 -20.9665
LeftForeArm  15.7221 -6.45632 -3.17544
LeftHand  -0.25398 0.0180481 5.50724
RightShoulder  4.86915 8.50384 34.5907
RightArm  -17.2461 -20.9007 32.0606
RightForeArm  6.97432 6.32098 3.93128
RightHand  -1.99571 5.82685 -20.8473
LeftUpLeg  -2.11808 5.26551 0.789633
LeftLeg  5.46124 8.10207 -3.48393
LeftFoot  -9.37073 0.238585 -10.5993
LeftToes  1.06245e-005 4.65856e-005 -8.18503e-006
503
root  2.55656 40.7554 -1.18685 -147.667 -85.4424 149.585
RightUpLeg  -1.25523 -9.43282 -5.34281
RightLeg  9.22647 -8.18108 3.18041
RightFoot  -9.3403 -0.0519538 -0.679069
RightToes  0.000482159 0.542163 -0.142577
Spine  7.06094 1.77337 7.46613
Spine1  5.29643 4.64616 -9.96971
HEad  -0.322334 3.07038 -3.0057
LeftShoulder1  4.46499 -7.08968 -36.0164
LeftArm  -15.0685 20.5396 -19.6864
LeftForeArm  14.1697 -5.36212 -2.86491
LeftHand  -0.25398 0.0180481 5.50724
RightShoulder  4.39163 7.94006 32.4339
RightArm  -18.9044 -19.1549 28.591
RightForeArm  5.24262 5.28401 3.27528
RightHand  -2.06135 6.28237 -20.6869
LeftUpLeg  -3.06874 4.61806 1.08743
LeftLeg  4.46866 9.44301 -3.61344
LeftFoot  -8.45219 0.296267 -9.74826
LeftToes  1.06245e-005 4.65856e-005 -8.18503e-006
504
root  2.79637 40.8404 -1.14754 -153.453 -84.9637 156.289
RightUpLeg  -1.75347 -9.22819 -5.18903
RightLeg  7.24456 -7.78208 4.01192
RightFoot  -7.65298 -0.0439664 -0.194798
RightToes  0.000482159 0.542163 -0.142577
Spine  6.55131 1.98931 7.35418
Spine1  4.10353 4.45312 -8.99519
HEad  -2.18967 2.58213 -3.14248
LeftShoulder1  4.06051 -6.7196 -33.628
LeftArm  -15.4238 20.9499 -17.5447
LeftForeArm  13.1874 -5.61917 -2.56936
LeftHand  -0.25398 0.0180481 5.50724
RightShoulder  3.98198 7.51652 30.1762
RightArm  -20.3827 -17.476 24.2975
RightForeArm  3.32114 5.34519 2.82382
RightHand  -2.13879 6.66001 -20.7873
LeftUpLeg  -3.99971 4.01291 1.18246
LeftLeg  3.39941 10.9713 -3.86623
LeftFoot  -7.19843 0.339819 -8.21675
LeftToes  1.06245e-005 4.65856e-005 -8.18503e-006
505
root  3.04073 40.8885 -1.14734 -153.542 -84.6112 156.776
RightUpLeg  -2.03821 -8.94433 -4.94071
RightLeg  5.79892 -8.21417 3.99322
RightFoot  -6.70808 0.00173654 -1.16011
RightToes  0.000482159 0.542163 -0.142577
Spine  6.61791 2.10262 6.60327
Spine1  2.87708 4.16785 -7.8309
HEad  -3.74761 2.20837 -2.81859
LeftShoulder1  3.65985 -6.37571 -30.9548
LeftArm  -15.4437 20.8054 -14.5808
LeftForeArm  12.4821 -5.90908 -2.38986
LeftHand  -0.25398 0.0180481 5.50724
RightShoulder  3.61498 7.18277 27.8129
RightArm  -21.6505 -16.0014 19.8891
RightForeArm  0.15756 5.99198 2.64489
RightHand  -2.38245 7.34278 -21.8812
LeftUpLeg  -4.46501 3.53352 0.966242
LeftLeg  2.40835 12.3506 -4.12956
LeftFoot  -5.63628 0.3619 -6.58377
LeftToes  1.06245e-005 4.65856e-005 -8.18503e-006
506
root  3.2848 40.9162 -1.14137 -152.115 -84.5445 155.105
RightUpLeg  -2.06075 -8.86178 -4.94191
RightLeg  5.35986 -8.43117 3.89701
RightFoot  -5.97451 0.057327 -2.09467
RightToes  0.000482159 0.542163 -0.142577
Spine  7.1031 2.08631 6.28462
Spine1  2.26739 4.02388 -7.37612
HEad  -5.28125 1.70634 -2.06299
LeftShoulder1  3.24581 -6.0402 -27.8619
LeftArm  -15.9646 19.7853 -11.6502
LeftForeArm  11.8215 -6.47803 -2.1554
LeftHand  -0.25398 0.0180481 5.50724
RightShoulder  3.18411 6.66995 25.1794
RightArm  -22.5236 -14.4005 15.9693
RightForeArm  -2.68689 6.56669 2.62858
RightHand  -2.62177 7.99816 -22.8721
LeftUpLeg  -4.48779 3.09136 0.584809
LeftLeg  1.9122 13.0371 -4.09908
LeftFoot  -4.28284 0.343347 -5.14349
LeftToes  1.06245e-005 4.65856e-005 -8.18503e-006
507
root  3.50981 40.9329 -1.12462 -150.242 -84.5861 152.774
RightUpLeg  -2.08609 -9.19361 -5.2829
RightLeg  5.72685 -8.15529 4.06309
RightFoot  -5.45056 0.0808247 -2.28947
RightToes  0.000482159 0.542163 -0.142577
Spine  7.55278 2.05435 6.20273
Spine1  2.06271 3.99373 -7.35492
HEad  -6.64746 1.15654 -1.28868
LeftShoulder1  2.82018 -5.66475 -24.4917
LeftArm  -17.3335 18.5796 -9.28155
LeftForeArm  11.1777 -7.96892 -1.83715
LeftHand  -0.25398 0.0180481 5.50724
RightShoulder  2.70722 5.93827 22.4195
RightArm  -22.878 -12.5279 12.4584
RightForeArm  -4.25253 6.75735 2.67177
RightHand  -2.78619 8.52381 -23.3686
LeftUpLeg  -4.44606 2.51563 0.0891055
LeftLeg  1.84296 13.4229 -3.72424
LeftFoot  -3.73622 0.27389 -3.77152
LeftToes  1.06245e-005 4.65856e-005 -8.18503e-006
508
root  3.70623 40.9366 -1.11307 -145.904 -84.6706 148.105
RightUpLeg  -2.285 -9.63678 -5.77838
RightLeg  6.3228 -8.08117 4.19838
RightFoot  -5.32546 0.0900176 -2.39933
RightToes  0.000482159 0.542163 -0.142577
Spine  7.87065 2.01162 5.66809
Spine1  1.45841 3.83246 -7.06497
HEad  -7.43843 0.675031 -0.728216
LeftShoulder1  2.42724 -5.26999 -21.2272
LeftArm  -18.8451 17.5391 -7.24007
LeftForeArm  10.6764 -9.88996 -1.61277
LeftHand  -0.25398 0.0180481 5.50724
RightShoulder  2.30206 5.27416 19.8155
RightArm  -22.6829 -10.6223 9.06372
RightForeArm  -5.53786 6.59955 2.81791
RightHand  -2.96482 9.059 -23.9236
LeftUpLeg  -4.66125 2.16686 -0.466126
LeftLeg  2.29398 15.1368 -3.35709
LeftFoot  -4.18327 0.177755 -2.42569
LeftToes  1.06245e-005 4.65856e-005 -8.18503e-006
509
root  3.87743 40.9235 -1.09872 -137.721 -85.0338 139.544
RightUpLeg  -2.44873 -9.9943 -6.24557
RightLeg  7.06068 -8.52293 4.08147
RightFoot  -5.49661 0.0980544 -2.64895
RightToes  0.000482159 0.542163 -0.142577
Spine  8.28769 1.78091 4.77614
Spine1  0.364453 3.35528 -6.35234
HEad  -7.60193 0.329033 -0.302169
LeftShoulder1  2.09528 -4.90926 -18.2713
LeftArm  -20.0581 16.3594 -5.37555
LeftForeArm  10.5135 -11.334 -1.52084
LeftHand  -0.25398 0.0180481 5.50724
RightShoulder  1.98246 4.79334 17.2917
RightArm  -22.3288 -8.83518 6.07257
RightForeArm  -7.26958 6.29558 3.04608
RightHand  -3.13493 9.44761 -24.6058
LeftUpLeg  -5.22967 3.40333 -0.96709
LeftLeg  4.29142 18.0858 -2.85192
LeftFoot  -5.2116 0.111928 -1.51479
LeftToes  1.06245e-005 4.65856e-005 -8.18503e-006
510
root  4.01146 40.8854 -1.05759 -126.206 -85.8192 127.334
RightUpLeg  -2.1983 -10.3348 -6.56281
RightLeg  8.01024 -9.24471 3.91177
RightFoot  -5.7967 0.085632 -2.5747
RightToes  0.000482159 0.542163 -0.142577
Spine  8.68276 1.33632 4.13184
Spine1  -0.433992 2.67233 -5.4018
HEad  -7.45837 0.0809543 0.0347505
LeftShoulder1  1.82391 -4.63647 -15.5643
LeftArm  -21.2362 14.8639 -3.97838
LeftForeArm  10.7047 -12.1852 -1.45192
LeftHand  -0.25398 0.0180481 5.50724
RightShoulder  1.66464 4.24396 14.6535
RightArm  -22.3893 -7.03691 3.95719
RightForeArm  -8.79728 6.06718 3.21414
RightHand  -3.23034 9.61824 -25.0451
LeftUpLeg  -5.81115 7.74284 -1.5393
LeftLeg  8.05454 18.1691 -1.20876
LeftFoot  -6.04923 0.109366 -1.58774
LeftToes  1.06245e-005 4.65856e-005 -8.18503e-006
